<?xml version="1.0" encoding="utf-8"?>
<!-- Generator: Adobe Illustrator 26.2.1, SVG Export Plug-In . SVG Version: 6.00 Build 0)  -->
<svg version="1.1" id="Layer_1" xmlns="http://www.w3.org/2000/svg" xmlns:xlink="http://www.w3.org/1999/xlink" x="0px" y="0px"
	 viewBox="0 0 50 50" style="enable-background:new 0 0 50 50;" xml:space="preserve">
<g>
	<path d="M46.9,12.5L46.9,12.5l-6.2-3.6l0,0l0,0l-3.1-1.8l-3.1-1.8l-3.1-1.8l0,0l-3.1-1.8L25,0l-6.2,3.6l-3.1,1.8L9.4,8.9l-3.1,1.8
		l-3.1,1.8L0,14.3v21.4l3.1,1.8l6.2,3.6l3.1,1.8l3.1,1.8l3.1,1.8L25,50l3.1-1.8l3.1-1.8l6.2-3.6l3.1-1.8l6.2-3.6l0,0l3.1-1.8V14.3
		L46.9,12.5z M46.9,33.9l-3.1,1.8l-3.1,1.8l0,0l-3.1,1.8l0,0l-3.1,1.8l0,0l-3.1,1.8l0,0l-3.1,1.8l0,0l0,0L25,46.4l-3.1-1.8l-6.2-3.6
		l0,0l-6.3-3.6l0,0l-6.2-3.6V16.1l6.2-3.6l3.1-1.8l3.1-1.8l0,0l6.2-3.6L25,3.6l3.1,1.8l0,0l6.2,3.6l0,0l6.2,3.6l3.1,1.8l3.1,1.8
		L46.9,33.9L46.9,33.9z"/>
	<polygon points="23.2,8.9 23.2,16.1 19.8,17.9 19.8,14.3 16.4,16.1 16.4,16.1 9.6,19.6 9.6,30.4 16.4,33.9 16.4,33.9 19.8,35.7 
		19.8,28.6 16.4,30.4 16.4,26.8 19.8,25 23.2,23.2 23.2,41.1 19.8,39.3 19.8,39.3 16.4,37.5 16.4,37.5 13,35.7 9.6,33.9 9.6,33.9 
		9.6,33.9 6.2,32.1 6.2,17.9 9.6,16.1 13,14.3 13,14.3 13,14.3 19.8,10.7 	"/>
	<polygon points="30.4,35.7 33.7,33.9 40.4,30.4 40.4,30.4 43.8,28.6 43.8,32.1 40.4,33.9 33.7,37.5 33.7,37.5 27,41.1 27,8.9 
		30.4,10.7 33.7,12.5 33.7,12.5 33.7,12.5 37.1,14.3 40.4,16.1 43.8,17.9 43.8,17.9 43.8,21.4 40.4,19.6 37.1,17.9 33.7,16.1 
		30.4,14.3 	"/>
</g>
</svg>
